<?xml version="1.0" encoding="UTF-8" standalone="no"?>
<svg
   xmlns:dc="http://purl.org/dc/elements/1.1/"
   xmlns:cc="http://creativecommons.org/ns#"
   xmlns:rdf="http://www.w3.org/1999/02/22-rdf-syntax-ns#"
   xmlns:svg="http://www.w3.org/2000/svg"
   xmlns="http://www.w3.org/2000/svg"
   xmlns:xlink="http://www.w3.org/1999/xlink"
   xmlns:sodipodi="http://sodipodi.sourceforge.net/DTD/sodipodi-0.dtd"
   xmlns:inkscape="http://www.inkscape.org/namespaces/inkscape"
   width="1440px"
   height="909px"
   viewBox="0 0 1440 909"
   version="1.1"
   id="svg31"
   sodipodi:docname="bg.svg"
   inkscape:version="1.0.1 (3bc2e813f5, 2020-09-07)">
  <metadata
     id="metadata35">
    <rdf:RDF>
      <cc:Work
         rdf:about="">
        <dc:format>image/svg+xml</dc:format>
        <dc:type
           rdf:resource="http://purl.org/dc/dcmitype/StillImage" />
      </cc:Work>
    </rdf:RDF>
  </metadata>
  <sodipodi:namedview
     pagecolor="#ffffff"
     bordercolor="#666666"
     borderopacity="1"
     objecttolerance="10"
     gridtolerance="10"
     guidetolerance="10"
     inkscape:pageopacity="0"
     inkscape:pageshadow="2"
     inkscape:window-width="1920"
     inkscape:window-height="1052"
     id="namedview33"
     showgrid="false"
     inkscape:zoom="0.33332811"
     inkscape:cx="710.04907"
     inkscape:cy="514.78555"
     inkscape:window-x="0"
     inkscape:window-y="28"
     inkscape:window-maximized="1"
     inkscape:current-layer="svg31" />
  <!-- Generator: sketchtool 53 (72520) - https://sketchapp.com -->
  <title
     id="title2">71CDA8D6-6870-4A28-B45F-707A97F95302</title>
  <desc
     id="desc4">Created with sketchtool.</desc>
  <defs
     id="defs7">
    <rect
       id="path-1"
       x="0"
       y="0.791595976"
       width="1440"
       height="938.017204" />
    <mask
       id="mask-2"
       fill="#ffffff">
      <use
         xlink:href="#path-1"
         id="use9"
         x="0"
         y="0"
         width="100%"
         height="100%" />
    </mask>
  </defs>
  <ellipse
     id="Oval"
     cx="2.4808388"
     cy="509.79483"
     rx="43.451118"
     ry="43.638008"
     style="fill:#0ce4b9;fill-opacity:1;fill-rule:nonzero;stroke:none;stroke-width:1" />
  <path
     d="m 363.07062,-104.24817 c -24.48299,-24.483 -64.249,-24.39415 -88.83378,0.19063 -24.5883,24.588298 -24.67013,64.354286 -0.19063,88.833778 80.35255,80.352553 80.0714,211.370802 -0.62676,292.068962 -80.69816,80.69816 -211.716405,80.97931 -292.068958,0.62675 -24.482993,-24.48299 -64.249002,-24.39414 -88.833782,0.19064 -24.58477,24.58477 -24.67012,64.35428 -0.19063,88.83377 129.227477,129.22748 339.96024,128.77527 469.74354,-1.00803 129.78329,-129.78329 130.22847,-340.509027 1.001,-469.7365 z"
     id="Path"
     style="fill:#0ce4b9;fill-opacity:1;fill-rule:nonzero;stroke:none;stroke-width:1" />
  <path
     d="M 66.78483,900.85218 179.73199,787.41926 c 4.93853,-4.95977 7.71242,-11.69053 7.71242,-18.70484 0,-7.01432 -2.77389,-13.74508 -7.71242,-18.70485 L 66.78483,636.5816 c -10.288184,-10.33244 -26.966241,-10.33244 -37.254428,0 -10.288187,10.33243 -10.288187,27.08223 0,37.41466 l 94.322418,94.72313 -94.322418,94.71819 c -10.288187,10.3324 -10.288187,27.0822 0,37.4146 5.14657,5.1687 11.883178,7.7506 18.629692,7.7506 6.736608,-0.01 13.483126,-2.5868 18.624736,-7.7506 z"
     id="path15"
     style="fill:#0ce4b9;fill-opacity:1;fill-rule:nonzero;stroke:none;stroke-width:1" />
  <path
     d="m 1202.533,535.69678 308.143,-309.46309 c 13.4727,-13.53074 21.0434,-31.88938 21.0434,-51.03348 0,-19.1441 -7.5707,-37.50274 -21.0434,-51.03348 l -308.143,-309.46309 c -28.0718,-28.18204 -73.5685,-28.18204 -101.6403,0 -28.0613,28.18204 -28.0613,73.88491 0,102.06695 l 257.3333,258.42962 -257.3333,258.42962 c -28.0613,28.18204 -28.0613,73.88491 0,102.06695 14.0359,14.09626 32.4254,21.13915 50.8201,21.13915 18.3843,0 36.7843,-7.04813 50.8202,-21.13915 z"
     id="path17"
     style="fill:#0ce4b9;fill-opacity:1;fill-rule:nonzero;stroke:none;stroke-width:1" />
  <ellipse
     id="ellipse19"
     cx="1376.3904"
     cy="466.84183"
     rx="30"
     ry="30.129032"
     style="fill:#0ce4b9;fill-opacity:1;fill-rule:nonzero;stroke:none;stroke-width:1" />
  <path
     d="m 1027.4429,762.92035 c 0,15.72998 12.6906,28.47515 28.3532,28.47515 15.6626,0 28.3532,-12.74517 28.3532,-28.47515 0,-51.62239 41.8165,-93.62372 93.2227,-93.62372 51.4063,0 93.2228,41.99636 93.2228,93.62372 0,15.72998 12.6906,28.47515 28.3532,28.47515 15.6626,0 28.3532,-12.74517 28.3532,-28.47515 0,-83.02265 -67.2571,-150.574 -149.9292,-150.574 -82.672,0 -149.9291,67.54638 -149.9291,150.574 z"
     id="path21"
     style="fill:#0ce4b9;fill-opacity:1;fill-rule:nonzero;stroke:none;stroke-width:1" />
</svg>
