<?xml version="1.0" encoding="UTF-8" standalone="no"?>
<svg
   xmlns:dc="http://purl.org/dc/elements/1.1/"
   xmlns:cc="http://creativecommons.org/ns#"
   xmlns:rdf="http://www.w3.org/1999/02/22-rdf-syntax-ns#"
   xmlns:svg="http://www.w3.org/2000/svg"
   xmlns="http://www.w3.org/2000/svg"
   xmlns:xlink="http://www.w3.org/1999/xlink"
   xmlns:sodipodi="http://sodipodi.sourceforge.net/DTD/sodipodi-0.dtd"
   xmlns:inkscape="http://www.inkscape.org/namespaces/inkscape"
   width="1200mm"
   height="630mm"
   viewBox="0 0 1200 630"
   version="1.1"
   id="svg959"
   inkscape:version="1.0.1 (3bc2e813f5, 2020-09-07)"
   sodipodi:docname="send-fb.svg">
  <defs
     id="defs953">
    <linearGradient
       id="linear-gradient"
       x1="7.4710212"
       y1="5.6289573"
       x2="13.194695"
       y2="38.70015"
       gradientTransform="matrix(1,0,0,-1,0,64)"
       gradientUnits="userSpaceOnUse">
      <stop
         offset="0"
         stop-color="#ff980e"
         id="stop2" />
      <stop
         offset="1"
         stop-color="#f5156c"
         id="stop14" />
    </linearGradient>
    <linearGradient
       id="linear-gradient-2"
       x1="46.369999"
       y1="59.709999"
       x2="15.42"
       y2="6.1100001"
       gradientTransform="matrix(1,0,0,-1,-81.360548,106.42749)"
       gradientUnits="userSpaceOnUse">
      <stop
         offset="0"
         stop-color="#fff44f"
         stop-opacity="0.8"
         id="stop17" />
      <stop
         offset="0.09"
         stop-color="#fff44f"
         stop-opacity="0.7"
         id="stop19" />
      <stop
         offset="0.75"
         stop-color="#fff44f"
         stop-opacity="0"
         id="stop21" />
    </linearGradient>
    <linearGradient
       id="linear-gradient-3"
       x1="40.189999"
       y1="26.08"
       x2="54.32"
       y2="50.549999"
       gradientTransform="matrix(1,0,0,-1,-50.33374,106.12888)"
       gradientUnits="userSpaceOnUse">
      <stop
         offset="0"
         stop-color="#3a8ee6"
         id="stop24" />
      <stop
         offset="0.24"
         stop-color="#5c79f0"
         id="stop26" />
      <stop
         offset="0.63"
         stop-color="#9059ff"
         id="stop28" />
      <stop
         offset="1"
         stop-color="#c139e6"
         id="stop30" />
    </linearGradient>
    <linearGradient
       id="linear-gradient-4"
       x1="54.32"
       y1="50.580002"
       x2="48.389999"
       y2="40.310001"
       gradientTransform="matrix(1,0,0,-1,-42.982475,124.15936)"
       gradientUnits="userSpaceOnUse">
      <stop
         offset="0"
         stop-color="#6e008b"
         stop-opacity="0.5"
         id="stop33" />
      <stop
         offset="0.5"
         stop-color="#c846cb"
         stop-opacity="0"
         id="stop35" />
    </linearGradient>
    <linearGradient
       id="linear-gradient-5"
       x1="56.959999"
       y1="22.5"
       x2="41.98"
       y2="37.459999"
       gradientTransform="matrix(1,0,0,-1,-57.076281,84.469569)"
       gradientUnits="userSpaceOnUse">
      <stop
         offset="0.14"
         stop-color="#6a2bea"
         stop-opacity="0"
         id="stop38" />
      <stop
         offset="0.34"
         stop-color="#642de4"
         stop-opacity="0.03"
         id="stop40" />
      <stop
         offset="0.55"
         stop-color="#5131d3"
         stop-opacity="0.12"
         id="stop42" />
      <stop
         offset="0.76"
         stop-color="#3139b7"
         stop-opacity="0.27"
         id="stop44" />
      <stop
         offset="0.98"
         stop-color="#054490"
         stop-opacity="0.48"
         id="stop46" />
      <stop
         offset="1"
         stop-color="#00458b"
         stop-opacity="0.5"
         id="stop48" />
    </linearGradient>
    <rect
       id="path-1"
       x="0"
       y="0.791595976"
       width="1440"
       height="938.017204" />
    <mask
       id="mask-2"
       fill="#ffffff">
      <use
         xlink:href="#path-1"
         id="use9"
         x="0"
         y="0"
         width="100%"
         height="100%" />
    </mask>
  </defs>
  <sodipodi:namedview
     id="base"
     pagecolor="#ffffff"
     bordercolor="#666666"
     borderopacity="1.0"
     inkscape:pageopacity="0.0"
     inkscape:pageshadow="2"
     inkscape:zoom="0.175"
     inkscape:cx="2273.343"
     inkscape:cy="1478.2552"
     inkscape:document-units="mm"
     inkscape:current-layer="layer1"
     inkscape:document-rotation="0"
     showgrid="false"
     inkscape:window-width="1920"
     inkscape:window-height="1052"
     inkscape:window-x="0"
     inkscape:window-y="28"
     inkscape:window-maximized="1" />
  <metadata
     id="metadata956">
    <rdf:RDF>
      <cc:Work
         rdf:about="">
        <dc:format>image/svg+xml</dc:format>
        <dc:type
           rdf:resource="http://purl.org/dc/dcmitype/StillImage" />
        <dc:title />
      </cc:Work>
    </rdf:RDF>
  </metadata>
  <g
     inkscape:label="Calque 1"
     inkscape:groupmode="layer"
     id="layer1">
    <rect
       style="fill:#ffffff;stroke-width:0;fill-opacity:1"
       id="rect929"
       width="1200"
       height="630"
       x="7.1054274e-14"
       y="3.1974423e-14" />
    <g
       id="g1954"
       transform="matrix(0.81605561,0,0,0.81605561,-16.784024,6.9649231)">
      <ellipse
         id="Oval"
         cx="2.4808388"
         cy="509.79483"
         rx="43.451118"
         ry="43.638008"
         style="fill:#0ce4b9;fill-opacity:1;fill-rule:nonzero;stroke:none;stroke-width:1" />
      <path
         d="m 363.07062,-104.24817 c -24.48299,-24.483 -64.249,-24.39415 -88.83378,0.19063 -24.5883,24.588298 -24.67013,64.354286 -0.19063,88.833778 80.35255,80.352553 80.0714,211.370802 -0.62676,292.068962 -80.69816,80.69816 -211.716405,80.97931 -292.068958,0.62675 -24.482993,-24.48299 -64.249002,-24.39414 -88.833782,0.19064 -24.58477,24.58477 -24.67012,64.35428 -0.19063,88.83377 129.227477,129.22748 339.96024,128.77527 469.74354,-1.00803 129.78329,-129.78329 130.22847,-340.509027 1.001,-469.7365 z"
         id="Path"
         style="fill:#0ce4b9;fill-opacity:1;fill-rule:nonzero;stroke:none;stroke-width:1" />
      <path
         d="M 66.78483,900.85218 179.73199,787.41926 c 4.93853,-4.95977 7.71242,-11.69053 7.71242,-18.70484 0,-7.01432 -2.77389,-13.74508 -7.71242,-18.70485 L 66.78483,636.5816 c -10.288184,-10.33244 -26.966241,-10.33244 -37.254428,0 -10.288187,10.33243 -10.288187,27.08223 0,37.41466 l 94.322418,94.72313 -94.322418,94.71819 c -10.288187,10.3324 -10.288187,27.0822 0,37.4146 5.14657,5.1687 11.883178,7.7506 18.629692,7.7506 6.736608,-0.01 13.483126,-2.5868 18.624736,-7.7506 z"
         id="path15"
         style="fill:#0ce4b9;fill-opacity:1;fill-rule:nonzero;stroke:none;stroke-width:1" />
      <path
         d="m 1202.533,535.69678 308.143,-309.46309 c 13.4727,-13.53074 21.0434,-31.88938 21.0434,-51.03348 0,-19.1441 -7.5707,-37.50274 -21.0434,-51.03348 l -308.143,-309.46309 c -28.0718,-28.18204 -73.5685,-28.18204 -101.6403,0 -28.0613,28.18204 -28.0613,73.88491 0,102.06695 l 257.3333,258.42962 -257.3333,258.42962 c -28.0613,28.18204 -28.0613,73.88491 0,102.06695 14.0359,14.09626 32.4254,21.13915 50.8201,21.13915 18.3843,0 36.7843,-7.04813 50.8202,-21.13915 z"
         id="path17"
         style="fill:#0ce4b9;fill-opacity:1;fill-rule:nonzero;stroke:none;stroke-width:1" />
      <ellipse
         id="ellipse19"
         cx="1376.3904"
         cy="466.84183"
         rx="30"
         ry="30.129032"
         style="fill:#0ce4b9;fill-opacity:1;fill-rule:nonzero;stroke:none;stroke-width:1" />
      <path
         d="m 1027.4429,762.92035 c 0,15.72998 12.6906,28.47515 28.3532,28.47515 15.6626,0 28.3532,-12.74517 28.3532,-28.47515 0,-51.62239 41.8165,-93.62372 93.2227,-93.62372 51.4063,0 93.2228,41.99636 93.2228,93.62372 0,15.72998 12.6906,28.47515 28.3532,28.47515 15.6626,0 28.3532,-12.74517 28.3532,-28.47515 0,-83.02265 -67.2571,-150.574 -149.9292,-150.574 -82.672,0 -149.9291,67.54638 -149.9291,150.574 z"
         id="path21"
         style="fill:#0ce4b9;fill-opacity:1;fill-rule:nonzero;stroke:none;stroke-width:1" />
    </g>
    <g
       id="g1139"
       transform="matrix(2.7537666,0,0,2.7537666,165.22472,227.62089)"
       style="fill:#000000;fill-opacity:1">
      <path
         d="m 25.190176,35.52592 v 16.028803 l -6.692185,-6.692186 c -2.699179,-2.69918 -6.74795,1.349592 -4.04877,4.04877 l 11.577478,11.594212 c 0.06565,0.06842 0.135491,0.132669 0.209131,0.1924 l 0.192401,0.1422 h 0.04183 l 0.200766,0.117113 0.225861,0.108755 0.234227,0.08365 0.242592,0.05856 0.209127,0.133841 h 1.062384 l 0.242591,-0.05856 0.242594,-0.08365 0.22586,-0.108756 0.200767,-0.117112 0.200765,-0.142218 0.334608,-0.326243 11.544019,-11.560747 c 2.140824,-2.663882 -1.33375,-6.16741 -4.015315,-4.048765 l -6.692183,6.692185 V 35.509189 Z"
         fill="url(#linear-gradient)"
         id="path53"
         sodipodi:nodetypes="ccscccccccccccccccccccccc"
         style="fill:#000000;fill-opacity:1;stroke-width:0.836522" />
      <g
         id="g11546"
         transform="matrix(0.08561611,0,0,0.08561611,-111.67078,8.4363791)"
         style="fill:#000000;fill-opacity:1">
        <path
           inkscape:connector-curvature="0"
           id="path4687-7-8-5-1-9-9-3"
           d="m 1683.3595,-67.756215 c 14.6504,10.75195 29.3008,21.5039 43.9512,32.25586 17.4863,-12.76042 34.9727,-25.52084 52.459,-38.28125 -32.1367,2.00846 -64.2735,4.01693 -96.4102,6.02539 z"
           style="fill:#000000;fill-opacity:1;stroke:none;stroke-width:3.1666;stroke-linecap:round;stroke-linejoin:round;stroke-opacity:1" />
        <path
           inkscape:connector-curvature="0"
           id="path4689-7-5-2-7-8-0-2"
           d="m 1794.5841,-36.314814 c 17.293,-0.921872 34.586,-1.843751 51.8789,-2.765621 -19.1243,-11.10026 -38.2486,-22.20052 -57.373,-33.30078 1.8314,12.02213 3.6627,24.04427 5.4941,36.066401 z"
           style="fill:#000000;fill-opacity:1;stroke:none;stroke-width:3.1666;stroke-linecap:round;stroke-linejoin:round;stroke-opacity:1" />
        <path
           inkscape:connector-curvature="0"
           id="path4691-2-3-4-2-0-3-9"
           d="m 1733.5998,-35.137074 c 18.9869,-0.34766 37.9739,-0.695312 56.9609,-1.042972 -1.8522,-12.156249 -3.7044,-24.312499 -5.5566,-36.468749 -17.1348,12.50391 -34.2696,25.00781 -51.4043,37.511721 z"
           style="fill:#000000;fill-opacity:1;stroke:none;stroke-width:3.1666;stroke-linecap:round;stroke-linejoin:round;stroke-opacity:1" />
        <path
           inkscape:connector-curvature="0"
           id="path4693-6-9-4-4-2-0-5"
           d="m 1579.8712,-21.080434 c 23.1524,4.19857 46.3047,8.39714 69.4571,12.5956991 8.1575,-18.9544191 16.3151,-37.9088491 24.4726,-56.8632801 -31.3099,14.75586 -62.6198,29.511721 -93.9297,44.267581 z"
           style="fill:#000000;fill-opacity:1;stroke:none;stroke-width:3.1666;stroke-linecap:round;stroke-linejoin:round;stroke-opacity:1" />
        <path
           inkscape:connector-curvature="0"
           id="path4695-45-4-3-1-4-3-4"
           d="m 1654.174,-9.6194929 c 22.9616,-8.0130201 45.9232,-16.0260401 68.8847,-24.0390631 -14.8294,-10.882818 -29.6588,-21.765629 -44.4882,-32.648439 -8.1322,18.89583 -16.2644,37.791661 -24.3965,56.6875021 z"
           style="fill:#000000;fill-opacity:1;stroke:none;stroke-width:3.1666;stroke-linecap:round;stroke-linejoin:round;stroke-opacity:1" />
        <path
           inkscape:connector-curvature="0"
           id="path4697-2-1-8-6-9-3-3"
           d="m 1604.6876,32.571905 c 13.8321,-12.520179 27.6641,-25.0403599 41.4961,-37.5605389 -23.013,-4.17318 -46.026,-8.3463611 -69.039,-12.5195301 9.181,16.69335911 18.362,33.38671 27.5429,50.080069 z"
           style="fill:#000000;fill-opacity:1;stroke:none;stroke-width:3.1666;stroke-linecap:round;stroke-linejoin:round;stroke-opacity:1" />
        <path
           inkscape:connector-curvature="0"
           id="path4699-0-5-6-5-0-7-9"
           d="m 1797.9494,-32.486685 c 24.362,21.033852 48.7239,42.0677111 73.0859,63.10156 -6.4121,-21.9908789 -12.8242,-43.98177 -19.2363,-65.972649 -17.9499,0.95703 -35.8998,1.91406 -53.8496,2.871089 z"
           style="fill:#000000;fill-opacity:1;stroke:none;stroke-width:3.1666;stroke-linecap:round;stroke-linejoin:round;stroke-opacity:1" />
        <path
           inkscape:connector-curvature="0"
           id="path4701-2-4-0-7-1-9-4"
           d="m 1502.2697,45.812145 c 32.901,-3.89909 65.8021,-7.79818 98.7031,-11.69727 -9.3828,-17.059889 -18.7656,-34.11978789 -28.1484,-51.17969 -23.5183,20.9589901 -47.0365,41.917972 -70.5547,62.87696 z"
           style="fill:#000000;fill-opacity:1;stroke:none;stroke-width:3.1666;stroke-linecap:round;stroke-linejoin:round;stroke-opacity:1" />
        <path
           inkscape:connector-curvature="0"
           id="path4707-9-5-9-5-2-4-9"
           d="m 1502.7209,49.786755 c 23.5481,12.67969 47.0963,25.35937 70.6445,38.03906 9.0573,-16.54362 18.1146,-33.08724 27.1719,-49.63086 -32.6055,3.86393 -65.211,7.72787 -97.8164,11.5918 z"
           style="fill:#000000;fill-opacity:1;stroke:none;stroke-width:3.1666;stroke-linecap:round;stroke-linejoin:round;stroke-opacity:1" />
        <path
           inkscape:connector-curvature="0"
           id="path4709-9-5-2-9-0-9-5"
           d="m 1449.8771,72.069955 c 12.5267,8.4668 25.0534,16.93359 37.5801,25.40039 2.0879,-15.19401 4.1758,-30.38802 6.2637,-45.58203 -14.6146,6.72721 -29.2292,13.45443 -43.8438,20.18164 z"
           style="fill:#000000;fill-opacity:1;stroke:none;stroke-width:3.1666;stroke-linecap:round;stroke-linejoin:round;stroke-opacity:1" />
        <path
           inkscape:connector-curvature="0"
           id="path4711-4-4-2-2-0-9-5"
           d="m 1491.3341,98.626595 c 25.4479,-3.10677 50.8959,-6.21354 76.3438,-9.32031 -23.2975,-12.54427 -46.5951,-25.08854 -69.8926,-37.63281 -2.1504,15.65104 -4.3008,31.30208 -6.4512,46.95312 z"
           style="fill:#000000;fill-opacity:1;stroke:none;stroke-width:3.1666;stroke-linecap:round;stroke-linejoin:round;stroke-opacity:1" />
        <path
           inkscape:connector-curvature="0"
           id="path4715-5-9-3-7-6-1-7"
           d="m 1576.4005,92.407845 c 1.2787,10.866545 2.5573,21.733075 3.836,32.599615 6.3919,-11.29297 12.7838,-22.58594 19.1758,-33.878915 -7.6706,0.42644 -15.3412,0.85287 -23.0118,1.2793 z"
           style="fill:#000000;fill-opacity:1;stroke:none;stroke-width:3.1666;stroke-linecap:round;stroke-linejoin:round;stroke-opacity:1" />
        <path
           inkscape:connector-curvature="0"
           id="path4717-1-8-1-3-3-9-3"
           d="m 1583.7091,126.99184 c 10.5163,-4.72136 21.0326,-9.44271 31.5489,-14.16407 -4.0782,-6.65364 -8.1563,-13.307295 -12.2344,-19.960935 -6.4382,11.375005 -12.8763,22.750005 -19.3145,34.125005 z"
           style="fill:#000000;fill-opacity:1;stroke:none;stroke-width:3.1666;stroke-linecap:round;stroke-linejoin:round;stroke-opacity:1" />
        <path
           inkscape:connector-curvature="0"
           id="path4723-3-8-3-4-9-4-9"
           d="m 1422.1252,109.79457 c 20.5273,-3.3444 41.0546,-6.6888 61.582,-10.033205 -12.4551,-8.41862 -24.9102,-16.83724 -37.3653,-25.25586 -8.0722,11.76302 -16.1445,23.52604 -24.2167,35.289065 z"
           style="fill:#000000;fill-opacity:1;stroke:none;stroke-width:3.1666;stroke-linecap:round;stroke-linejoin:round;stroke-opacity:1" />
        <path
           inkscape:connector-curvature="0"
           id="path4725-7-5-4-7-0-2-0"
           d="m 1497.9709,101.84535 c 26.2128,8.85417 52.4257,17.70833 78.6386,26.5625 -1.3984,-11.88346 -2.7969,-23.76693 -4.1953,-35.650395 -24.8144,3.0293 -49.6289,6.05859 -74.4433,9.087895 z"
           style="fill:#000000;fill-opacity:1;stroke:none;stroke-width:3.1666;stroke-linecap:round;stroke-linejoin:round;stroke-opacity:1" />
        <path
           inkscape:connector-curvature="0"
           id="path4727-8-2-2-9-8-0-7"
           d="m 1534.1935,172.87465 c 13.6882,-13.56706 27.3763,-27.13412 41.0645,-40.70117 -27.2559,-9.20704 -54.5118,-18.41407 -81.7676,-27.6211 13.5677,22.77409 27.1354,45.54818 40.7031,68.32227 z"
           style="fill:#000000;fill-opacity:1;stroke:none;stroke-width:3.1666;stroke-linecap:round;stroke-linejoin:round;stroke-opacity:1" />
        <path
           inkscape:connector-curvature="0"
           id="path4729-8-2-2-7-3-6-2"
           d="m 1421.5255,113.94496 c 17.2207,21.55534 34.4414,43.11068 51.6622,64.66602 4.4505,-25.08594 8.901,-50.17188 13.3515,-75.25782 -21.6712,3.5306 -43.3424,7.0612 -65.0137,10.5918 z"
           style="fill:#000000;fill-opacity:1;stroke:none;stroke-width:3.1666;stroke-linecap:round;stroke-linejoin:round;stroke-opacity:1" />
        <path
           inkscape:connector-curvature="0"
           id="path4733-04-7-5-2-8-5-7"
           d="m 1380.6896,130.83168 c 5.0352,16.13737 10.0703,32.27474 15.1055,48.41211 6.2955,-21.0586 12.5911,-42.11719 18.8867,-63.17578 -11.3307,4.92122 -22.6615,9.84245 -33.9922,14.76367 z"
           style="fill:#000000;fill-opacity:1;stroke:none;stroke-width:3.1666;stroke-linecap:round;stroke-linejoin:round;stroke-opacity:1" />
        <path
           inkscape:connector-curvature="0"
           id="path4735-6-0-1-1-7-9-2"
           d="m 1476.8263,180.99965 c 17.8887,-2.17318 35.7774,-4.34636 53.666,-6.51953 -13.4869,-22.63867 -26.9739,-45.27735 -40.4609,-67.91602 -4.4017,24.81185 -8.8034,49.6237 -13.2051,74.43555 z"
           style="fill:#000000;fill-opacity:1;stroke:none;stroke-width:3.1666;stroke-linecap:round;stroke-linejoin:round;stroke-opacity:1" />
        <path
           inkscape:connector-curvature="0"
           id="path4739-7-3-7-6-3-5-9"
           d="m 1398.549,183.99574 c 23.931,-0.847 47.862,-1.69401 71.7929,-2.54101 -17.2304,-21.56706 -34.4609,-43.13412 -51.6914,-64.70118 -6.7005,22.41407 -13.401,44.82813 -20.1015,67.24219 z"
           style="fill:#000000;fill-opacity:1;stroke:none;stroke-width:3.1666;stroke-linecap:round;stroke-linejoin:round;stroke-opacity:1" />
        <path
           inkscape:connector-curvature="0"
           id="path4743-6-4-5-3-1-6-0"
           d="m 1537.6994,175.0309 c 24.5514,6.25846 49.1028,12.51693 73.6543,18.77539 -10.9519,-19.73763 -21.9037,-39.47526 -32.8555,-59.21289 -13.5996,13.47916 -27.1992,26.95833 -40.7988,40.4375 z"
           style="fill:#000000;fill-opacity:1;stroke:none;stroke-width:3.1666;stroke-linecap:round;stroke-linejoin:round;stroke-opacity:1" />
        <path
           inkscape:connector-curvature="0"
           id="path4757-5-3-9-5-0-1-5"
           d="m 1476.0275,185.12855 c -4.1387,18.43946 -8.2774,36.87891 -12.416,55.31836 21.4811,-20.54686 42.9622,-41.09374 64.4433,-61.64062 -17.3424,2.10742 -34.6849,4.21484 -52.0273,6.32226 z"
           style="fill:#000000;fill-opacity:1;stroke:none;stroke-width:3.1666;stroke-linecap:round;stroke-linejoin:round;stroke-opacity:1" />
        <path
           inkscape:connector-curvature="0"
           id="path4759-9-3-8-6-0-1-0"
           d="m 1546.0998,273.8102 c 21.8737,-25.26106 43.7474,-50.52213 65.6211,-75.7832 -25.2162,-6.42839 -50.4323,-12.85678 -75.6485,-19.28516 3.3425,31.68946 6.6849,63.3789 10.0274,95.06836 z"
           style="fill:#000000;fill-opacity:1;stroke:none;stroke-width:3.1666;stroke-linecap:round;stroke-linejoin:round;stroke-opacity:1" />
        <path
           inkscape:connector-curvature="0"
           id="path4761-7-4-1-5-5-4-4"
           d="m 1463.881,245.72622 c 26.1283,9.94986 52.2565,19.89973 78.3848,29.8496 -3.3477,-31.73957 -6.6953,-63.47918 -10.043,-95.21875 -22.7806,21.78971 -45.5612,43.57944 -68.3418,65.36915 z"
           style="fill:#000000;fill-opacity:1;stroke:none;stroke-width:3.1666;stroke-linecap:round;stroke-linejoin:round;stroke-opacity:1" />
        <path
           inkscape:connector-curvature="0"
           id="path4765-5-3-3-0-0-3-1"
           d="m 1686.549,309.58364 c 18.5351,-14.86654 37.0703,-29.73308 55.6054,-44.59962 -21.9811,-5.79752 -43.9622,-11.59505 -65.9433,-17.39257 3.446,20.66406 6.8919,41.32813 10.3379,61.99219 z"
           style="fill:#000000;fill-opacity:1;stroke:none;stroke-width:3.1666;stroke-linecap:round;stroke-linejoin:round;stroke-opacity:1" />
        <path
           inkscape:connector-curvature="0"
           id="path4767-3-9-3-3-3-7-7"
           d="m 1462.9767,311.42152 c 25.429,-10.90298 50.8581,-21.80598 76.2871,-32.70898 -25.6725,-9.77668 -51.345,-19.55337 -77.0176,-29.33007 0.2435,20.67967 0.487,41.35937 0.7305,62.03905 z"
           style="fill:#000000;fill-opacity:1;stroke:none;stroke-width:3.1666;stroke-linecap:round;stroke-linejoin:round;stroke-opacity:1" />
        <path
           inkscape:connector-curvature="0"
           id="path4769-3-7-7-4-18-2-9"
           d="m 1550.3283,275.03872 c 39.7005,-10.37175 79.401,-20.7435 119.1015,-31.11524 -17.9472,-14.75132 -35.8945,-29.5026 -53.8418,-44.25392 -21.7532,25.12306 -43.5065,50.2461 -65.2597,75.36916 z"
           style="fill:#000000;fill-opacity:1;stroke:none;stroke-width:3.1666;stroke-linecap:round;stroke-linejoin:round;stroke-opacity:1" />
        <path
           inkscape:connector-curvature="0"
           id="path4771-8-2-9-6-0-7-3"
           d="m 1831.2072,331.50159 c 16.4824,-11.14451 32.9648,-22.28905 49.4472,-33.43357 -17.095,-7.12239 -34.19,-14.24479 -51.2851,-21.36719 0.6126,18.26691 1.2252,36.53385 1.8379,54.80076 z"
           style="fill:#000000;fill-opacity:1;stroke:none;stroke-width:3.1666;stroke-linecap:round;stroke-linejoin:round;stroke-opacity:1" />
        <path
           inkscape:connector-curvature="0"
           id="path4773-3-5-8-6-1-3-6"
           d="m 1827.1798,330.70279 c -0.6178,-18.42058 -1.2356,-36.84117 -1.8535,-55.26175 -24.1803,-2.87237 -48.3607,-5.74476 -72.541,-8.61716 24.7982,21.29295 49.5963,42.58593 74.3945,63.87891 z"
           style="fill:#000000;fill-opacity:1;stroke:none;stroke-width:3.1666;stroke-linecap:round;stroke-linejoin:round;stroke-opacity:1" />
        <path
           inkscape:connector-curvature="0"
           id="path4775-7-8-6-0-7-3-2"
           d="m 1552.7209,278.54849 c 43.3151,10.68748 86.6302,21.37498 129.9453,32.0625 -3.5163,-21.08464 -7.0326,-42.16929 -10.5489,-63.25391 -39.7988,10.39712 -79.5976,20.79427 -119.3964,31.19141 z"
           style="fill:#000000;fill-opacity:1;stroke:none;stroke-width:3.1666;stroke-linecap:round;stroke-linejoin:round;stroke-opacity:1" />
        <path
           inkscape:connector-curvature="0"
           id="path4777-9-9-7-2-9-9-1"
           d="m 1899.2892,349.52115 c 14.4733,2.93944 28.9466,5.87891 43.4199,8.81835 -18.0918,-18.09181 -36.1836,-36.1836 -54.2753,-54.27538 3.6184,15.15234 7.2369,30.30468 10.8554,45.45703 z"
           style="fill:#000000;fill-opacity:1;stroke:none;stroke-width:3.1666;stroke-linecap:round;stroke-linejoin:round;stroke-opacity:1" />
        <path
           inkscape:connector-curvature="0"
           id="path4779-3-0-0-5-1-2-2"
           d="m 1834.2365,334.28287 c 20.235,4.7526 40.47,9.50521 60.7051,14.25781 -3.7898,-15.87241 -7.5795,-31.74481 -11.3692,-47.61719 -16.4453,11.11977 -32.8906,22.23957 -49.3359,33.35938 z"
           style="fill:#000000;fill-opacity:1;stroke:none;stroke-width:3.1666;stroke-linecap:round;stroke-linejoin:round;stroke-opacity:1" />
        <path
           inkscape:connector-curvature="0"
           id="path4781-7-2-4-8-0-4-5"
           d="m 1598.2052,368.83364 c 27.349,-18.23307 54.698,-36.46614 82.0469,-54.69922 -43.873,-10.82487 -87.7461,-21.64974 -131.6191,-32.47461 16.524,29.05794 33.0481,58.11589 49.5722,87.17383 z"
           style="fill:#000000;fill-opacity:1;stroke:none;stroke-width:3.1666;stroke-linecap:round;stroke-linejoin:round;stroke-opacity:1" />
        <path
           inkscape:connector-curvature="0"
           id="path4783-8-4-8-9-3-4-3"
           d="m 1688.1818,313.40589 c 20.7402,19.61915 41.4805,39.23829 62.2207,58.85744 -1.8952,-34.73503 -3.7904,-69.47006 -5.6855,-104.20509 -18.8451,15.11588 -37.6902,30.23177 -56.5352,45.34765 z"
           style="fill:#000000;fill-opacity:1;stroke:none;stroke-width:3.1666;stroke-linecap:round;stroke-linejoin:round;stroke-opacity:1" />
        <path
           inkscape:connector-curvature="0"
           id="path4785-7-7-4-5-5-4-9"
           d="m 1754.4943,373.88443 c 23.7799,-13.02149 47.5599,-26.04299 71.3398,-39.06446 -25.694,-22.06252 -51.388,-44.12501 -77.082,-66.1875 1.9141,35.08398 3.8281,70.16797 5.7422,105.25196 z"
           style="fill:#000000;fill-opacity:1;stroke:none;stroke-width:3.1666;stroke-linecap:round;stroke-linejoin:round;stroke-opacity:1" />
        <path
           inkscape:connector-curvature="0"
           id="path4789-4-6-8-0-94-9-1"
           d="m 1463.424,315.58363 c 6.3346,21.9284 12.6693,43.85677 19.0039,65.78518 19.1315,-32.84768 38.263,-65.69533 57.3945,-98.54298 -25.4661,10.91927 -50.9323,21.83855 -76.3984,32.7578 z"
           style="fill:#000000;fill-opacity:1;stroke:none;stroke-width:3.1666;stroke-linecap:round;stroke-linejoin:round;stroke-opacity:1" />
        <path
           inkscape:connector-curvature="0"
           id="path4791-1-5-1-6-8-9-8"
           d="m 1875.6427,394.49185 c 6.3881,-13.95833 12.7761,-27.91667 19.1641,-41.875 -20.2096,-4.74609 -40.4193,-9.49219 -60.6289,-14.23829 13.8216,18.70443 27.6432,37.40886 41.4648,56.11329 z"
           style="fill:#000000;fill-opacity:1;stroke:none;stroke-width:3.1666;stroke-linecap:round;stroke-linejoin:round;stroke-opacity:1" />
        <path
           sodipodi:nodetypes="cccccc"
           inkscape:connector-curvature="0"
           id="path8246-0-6-8-6-3-8"
           d="m 1733.6818,-6.2777049 32.6625,10.496862 32.2105,24.1574379 c 0,0 4.4467,-15.640619 6.67,-23.4609379 -11.7781,-5.20096999 -23.3223,-11.908362 -35.2466,-16.1669711 z"
           style="fill:#000000;fill-opacity:1;stroke:none;stroke-width:3.1666;stroke-linecap:round;stroke-linejoin:round;stroke-opacity:1" />
        <path
           inkscape:connector-curvature="0"
           id="path8252-0-2-5-92-8-7"
           d="m 1801.8791,31.310185 c 6.8672,9.10417 13.7343,18.20834 20.6015,27.3125 -4.929,-15.92057 -9.858,-31.84114 -14.7871,-47.761708 -1.9381,6.816399 -3.8763,13.632809 -5.8144,20.449208 z"
           style="fill:#000000;fill-opacity:1;stroke:none;stroke-width:3.1666;stroke-linecap:round;stroke-linejoin:round;stroke-opacity:1" />
      </g>
    </g>
    <g
       id="g902"
       transform="matrix(2.5137766,0,0,2.5137766,276.92519,34.309108)"
       style="fill:currentColor;fill-opacity:1">
      <g
         aria-label="CHEVRO Send"
         id="text17"
         style="fill:currentColor;fill-opacity:1">
        <path
           d="m 50.836221,118.56871 c 3,0 6.44,-0.8 8.56,-1.96 l -1.52,-5 c -1.6,0.56 -3.64,0.88 -5.36,0.88 -5.56,0 -8.76,-3.28 -8.76,-8.68 0,-5.080001 2.84,-7.680001 7.88,-7.680001 2.16,0 4.68,0.4 6.2,1.04 l 1.92,-5.44 c -2.68,-1.16 -5.28,-1.72 -8.04,-1.72 -8.92,0 -15.16,5.76 -15.16,14.480001 0,8.44 5.84,14.08 14.28,14.08 z"
           id="path43"
           style="fill:currentColor;fill-opacity:1" />
        <path
           d="m 63.356209,118.16871 h 7.04 v -10.96 h 10.76 v 10.96 h 7.04 V 90.408709 h -7.04 v 10.560001 h -10.76 V 90.408709 h -7.04 z"
           id="path45"
           style="fill:currentColor;fill-opacity:1" />
        <path
           d="m 93.876152,118.16871 h 19.919998 v -6.08 h -13 v -4.96 h 11.88 v -6.08 h -11.88 v -4.560001 h 13 v -6.08 H 93.876152 Z"
           id="path47"
           style="fill:currentColor;fill-opacity:1" />
        <path
           d="m 125.55613,118.16871 h 7.4 l 9.88,-27.760001 h -7.16 l -6.12,19.520001 -5.72,-19.520001 h -8.08 z"
           id="path49"
           style="fill:currentColor;fill-opacity:1" />
        <path
           d="m 145.6361,118.16871 h 6.92 v -9.48 h 3.08 l 5.4,9.48 h 8.32 l -6.92,-10.92 c 3.12,-1.68 5,-4.68 5,-8.440001 0,-5.36 -3.84,-8.4 -10.36,-8.4 h -11.44 z m 6.92,-15.36 v -6.360001 h 3.56 c 2.6,0 4.12,1.24 4.12,3.32 0,1.880001 -1.12,3.040001 -3.16,3.040001 z"
           id="path51"
           style="fill:currentColor;fill-opacity:1" />
        <path
           d="m 184.99608,118.56871 c 8.68,0 14.44,-5.76 14.44,-14.44 0,-8.480001 -5.6,-14.120001 -14,-14.120001 -8.6,0 -14.32,5.8 -14.32,14.520001 0,8.44 5.56,14.04 13.88,14.04 z m 0.44,-6.08 c -4.28,0 -7.04,-3.28 -7.04,-8.36 0,-4.880001 2.6,-8.040001 6.6,-8.040001 4.36,0 7.16,3.32 7.16,8.440001 0,4.84 -2.64,7.96 -6.72,7.96 z"
           id="path53-5"
           style="fill:currentColor;fill-opacity:1" />
        <path
           d="m 219.43602,118.56871 c 6.2,0 10.24,-3.16 10.24,-8.04 0,-9.84 -15.56,-5.92 -15.56,-13.080001 0,-2.92 2.36,-4.52 6.6,-4.52 2.36,0 4.92,0.48 6.92,1.32 l 1,-2.6 c -2.36,-1.04 -5.04,-1.6 -7.68,-1.6 -6.2,0 -10.24,3.08 -10.24,7.92 0,9.520001 15.52,5.960001 15.52,13.040001 0,2.8 -2.4,4.6 -6.6,4.6 -2.52,0 -5.64,-0.68 -8.36,-1.8 l -1,2.6 c 3.08,1.4 6.2,2.16 9.16,2.16 z"
           id="path55"
           style="fill:currentColor;fill-opacity:1" />
        <path
           d="m 243.036,118.56871 c 2.2,0 4.6,-0.52 6.32,-1.44 l -0.72,-2.32 c -1.48,0.72 -3.36,1.16 -5.04,1.16 -4.08,0 -6.64,-2.44 -7.12,-6.56 h 13.44 c 0.08,-0.6 0.16,-2 0.16,-2.76 0,-4.84 -3.2,-8.160001 -7.96,-8.160001 -5.36,0 -9,4.200001 -9,10.120001 0,6.16 3.8,9.96 9.92,9.96 z m -6.6,-11.56 c 0.28,-3.76 2.2,-5.8 5.44,-5.8 3.28,0 5.2,2.12 5.2,5.8 z"
           id="path57"
           style="fill:currentColor;fill-opacity:1" />
        <path
           d="m 268.63599,118.16871 h 3.2 v -12.64 c 0,-4.28 -2.84,-7.040001 -7.16,-7.040001 -2.2,0 -4.4,0.76 -6.24,2.120001 l -0.72,-1.720001 h -2.24 v 19.280001 h 3.2 v -15.08 c 1.48,-1.16 3.24,-1.8 5.12,-1.8 3.12,0 4.84,1.76 4.84,4.88 z"
           id="path59"
           style="fill:currentColor;fill-opacity:1" />
        <path
           d="m 285.51597,118.56871 c 2.32,0 4.28,-0.84 5.76,-2.28 l 0.8,1.88 h 2.24 V 88.608709 h -3.2 v 11.600001 c -1.36,-1.120001 -3.12,-1.720001 -5.16,-1.720001 -5.44,0 -9.04,4.080001 -9.04,10.200001 0,5.92 3.44,9.88 8.6,9.88 z m 5.6,-5 c -1.08,1.4 -2.72,2.2 -4.68,2.2 -3.84,0 -6.32,-3 -6.32,-7.44 0,-4.24 2.24,-7.04 5.96,-7.04 2.16,0 3.88,0.88 5.04,2.4 z"
           id="path61"
           style="fill:currentColor;fill-opacity:1" />
      </g>
      <g
         id="use5"
         transform="matrix(0.34775652,0,0,0.34775652,176.37435,117.86131)"
         style="fill:currentColor;fill-opacity:1">
        <path
           d="m 84,48 h 5.83 V 35.87 H 103.3 V 30.45 H 89.83 V 23.51 H 103.3 V 18 H 84 Z m 23.57,0 h 5.79 V 25.81 h -5.79 z m 2.88,-32.12 a 3.46,3.46 0 0 0 -2.59,1 3.62,3.62 0 0 0 -1,2.65 3.57,3.57 0 0 0 1,2.59 3.52,3.52 0 0 0 2.61,1 3.46,3.46 0 0 0 3.65,-3.26 c 0,-0.12 0,-0.23 0,-0.35 a 3.71,3.71 0 0 0 -1,-2.65 3.5,3.5 0 0 0 -2.67,-1 z m 19.14,9.53 a 7.22,7.22 0 0 0 -3.72,0.93 5.82,5.82 0 0 0 -2.4,2.89 v -3.42 h -5.59 V 48 h 5.63 V 36.29 a 5.27,5.27 0 0 1 1.31,-4 4.94,4.94 0 0 1 3.49,-1.21 6.33,6.33 0 0 1 1.73,0.23 4,4 0 0 1 1.23,0.55 l 2,-5.59 a 7.51,7.51 0 0 0 -1.66,-0.61 8.11,8.11 0 0 0 -2,-0.26 z m 23.94,3.19 a 11.15,11.15 0 0 0 -3.61,-2.37 12.08,12.08 0 0 0 -4.6,-0.86 11.62,11.62 0 0 0 -8.3,3.37 11.17,11.17 0 0 0 -2.44,3.67 11.59,11.59 0 0 0 -0.89,4.54 12.24,12.24 0 0 0 0.83,4.52 10.52,10.52 0 0 0 2.36,3.66 10.93,10.93 0 0 0 3.71,2.44 12.75,12.75 0 0 0 4.85,0.88 12.15,12.15 0 0 0 6.12,-1.39 13.25,13.25 0 0 0 4.11,-3.74 L 151,40.6 a 6.23,6.23 0 0 1 -2.18,2.15 6.36,6.36 0 0 1 -3.33,0.8 6.7,6.7 0 0 1 -4.13,-1.25 6,6 0 0 1 -2.23,-3.43 h 17.62 v -2.13 a 11.71,11.71 0 0 0 -0.87,-4.56 10.5,10.5 0 0 0 -2.35,-3.59 z m -14.21,5.85 a 6.38,6.38 0 0 1 2.26,-3.12 6.11,6.11 0 0 1 3.74,-1.15 6.26,6.26 0 0 1 3.73,1.08 5.56,5.56 0 0 1 2.1,3.19 z M 167,16.08 a 6.05,6.05 0 0 0 -2.91,1.54 6.15,6.15 0 0 0 -1.56,2.89 18.1,18.1 0 0 0 -0.48,4.52 v 0.78 h -3.65 v 5.1 h 3.65 V 48 h 5.63 V 30.91 H 173 v -5.1 h -5.3 v -1.06 a 13.34,13.34 0 0 1 0.12,-2 2,2 0 0 1 0.6,-1.19 2.45,2.45 0 0 1 1.33,-0.57 15.25,15.25 0 0 1 2.34,-0.15 H 173 v -5.21 h -1.48 A 19.06,19.06 0 0 0 167,16.08 Z m 27.4,12.65 a 12,12 0 0 0 -16.72,0 10.87,10.87 0 0 0 -2.46,3.67 11.61,11.61 0 0 0 -0.89,4.5 11.46,11.46 0 0 0 7.07,10.64 11.73,11.73 0 0 0 4.64,0.9 12,12 0 0 0 4.66,-0.9 11.26,11.26 0 0 0 3.72,-2.49 11.83,11.83 0 0 0 2.46,-3.67 11.31,11.31 0 0 0 0.9,-4.48 11.43,11.43 0 0 0 -3.38,-8.17 z m -2.7,10.57 a 5.88,5.88 0 0 1 -1.29,2 6.53,6.53 0 0 1 -1.93,1.31 6,6 0 0 1 -4.76,0 6.34,6.34 0 0 1 -1.93,-1.31 6.06,6.06 0 0 1 -1.3,-2 6.48,6.48 0 0 1 0,-4.86 5.76,5.76 0 0 1 1.3,-2 6.08,6.08 0 0 1 1.93,-1.32 6,6 0 0 1 4.76,0 6.37,6.37 0 0 1 1.93,1.32 5.73,5.73 0 0 1 1.29,2 6.39,6.39 0 0 1 0,4.86 z m 29.47,-13.49 h -6.65 l -4.68,6.57 -4.64,-6.57 h -6.74 L 206.3,36.61 198,48 h 6.82 l 5,-6.94 5.07,6.94 h 6.86 l -8.46,-11.34 z m 34,7.46 a 12.88,12.88 0 0 0 -3.37,-1.44 c -1.25,-0.34 -2.46,-0.63 -3.63,-0.88 l -3.08,-0.7 a 10.64,10.64 0 0 1 -2.51,-0.86 4.54,4.54 0 0 1 -1.71,-1.39 3.61,3.61 0 0 1 -0.62,-2.19 4.8,4.8 0 0 1 1.58,-3.7 c 1.06,-1 2.73,-1.44 5,-1.44 a 9.84,9.84 0 0 1 5.07,1.17 10.47,10.47 0 0 1 3.39,3.23 l 2.79,-2.18 a 15.22,15.22 0 0 0 -4.63,-3.89 13.8,13.8 0 0 0 -6.59,-1.44 12.13,12.13 0 0 0 -4.14,0.66 10.33,10.33 0 0 0 -3.19,1.78 7.53,7.53 0 0 0 -2.05,2.63 7.41,7.41 0 0 0 -0.72,3.24 6.7,6.7 0 0 0 0.84,3.53 7.06,7.06 0 0 0 2.2,2.22 11.11,11.11 0 0 0 3.06,1.38 c 1.13,0.32 2.29,0.6 3.47,0.84 l 3.26,0.74 a 12.63,12.63 0 0 1 2.8,1 5.86,5.86 0 0 1 2,1.56 3.88,3.88 0 0 1 0.74,2.42 5.2,5.2 0 0 1 -1.81,4.09 7.83,7.83 0 0 1 -5.32,1.55 11,11 0 0 1 -9.89,-5.38 l -3,2.34 a 15.86,15.86 0 0 0 5.23,4.54 16.06,16.06 0 0 0 7.7,1.7 12.58,12.58 0 0 0 4.38,-0.72 10.14,10.14 0 0 0 3.3,-2 8.79,8.79 0 0 0 2.1,-2.85 8.09,8.09 0 0 0 0.74,-3.39 6.94,6.94 0 0 0 -1,-3.8 7.71,7.71 0 0 0 -2.42,-2.37 z m 27.51,-4.72 a 10.53,10.53 0 0 0 -3.58,-2.34 11.89,11.89 0 0 0 -4.49,-0.84 11.6,11.6 0 0 0 -4.62,0.9 11.35,11.35 0 0 0 -3.66,2.46 11.84,11.84 0 0 0 -3.33,8.27 12.21,12.21 0 0 0 0.82,4.51 10.53,10.53 0 0 0 2.36,3.64 11.24,11.24 0 0 0 3.7,2.42 12.41,12.41 0 0 0 4.82,0.88 11.68,11.68 0 0 0 6.12,-1.45 12.84,12.84 0 0 0 4.18,-4.18 l -2.88,-1.69 a 7.85,7.85 0 0 1 -7.43,4.27 9,9 0 0 1 -3.22,-0.53 8.21,8.21 0 0 1 -2.55,-1.5 8,8 0 0 1 -1.78,-2.28 7.79,7.79 0 0 1 -0.87,-2.91 h 19.59 V 36.66 A 11.75,11.75 0 0 0 285,32.12 10.92,10.92 0 0 0 282.65,28.55 Z m -16.28,6.67 a 8.88,8.88 0 0 1 1,-2.73 8.55,8.55 0 0 1 1.79,-2.18 8,8 0 0 1 2.44,-1.43 8.31,8.31 0 0 1 3,-0.52 7.45,7.45 0 0 1 7.84,6.86 z M 308.82,28 a 8.11,8.11 0 0 0 -3,-2 10.89,10.89 0 0 0 -3.92,-0.67 9.06,9.06 0 0 0 -4.58,1.14 8.76,8.76 0 0 0 -3.14,3 v -3.65 h -3.29 V 48 h 3.37 V 35.67 a 7.92,7.92 0 0 1 0.53,-2.93 7,7 0 0 1 1.48,-2.3 6.46,6.46 0 0 1 2.22,-1.5 7,7 0 0 1 2.75,-0.54 6.33,6.33 0 0 1 5,1.93 7.46,7.46 0 0 1 1.76,5.18 V 48 h 3.41 V 35.34 A 12.46,12.46 0 0 0 310.75,31.15 8.68,8.68 0 0 0 308.82,28 Z m 27,-12.42 v 14.1 a 8.14,8.14 0 0 0 -1.58,-1.83 10.08,10.08 0 0 0 -2,-1.36 10.39,10.39 0 0 0 -2.3,-0.84 10.22,10.22 0 0 0 -2.4,-0.28 11.63,11.63 0 0 0 -4.4,0.84 11.09,11.09 0 0 0 -3.59,2.38 11.3,11.3 0 0 0 -2.42,3.65 12.81,12.81 0 0 0 0,9.32 11.56,11.56 0 0 0 2.4,3.66 10.58,10.58 0 0 0 3.59,2.38 11.77,11.77 0 0 0 4.42,0.84 9.69,9.69 0 0 0 2.4,-0.31 11,11 0 0 0 2.3,-0.86 9.72,9.72 0 0 0 2,-1.37 8.75,8.75 0 0 0 1.58,-1.85 v 4 h 3.33 V 15.59 Z m -0.37,24.58 a 8.3,8.3 0 0 1 -10.85,4.47 v 0 a 7.68,7.68 0 0 1 -2.6,-1.76 7.88,7.88 0 0 1 -1.73,-2.67 8.93,8.93 0 0 1 -0.62,-3.35 8.67,8.67 0 0 1 0.62,-3.3 8,8 0 0 1 1.73,-2.66 8.17,8.17 0 0 1 2.6,-1.79 8.27,8.27 0 0 1 6.51,0 8.64,8.64 0 0 1 2.63,1.81 7.85,7.85 0 0 1 1.72,2.67 8.67,8.67 0 0 1 0.62,3.26 8.86,8.86 0 0 1 -0.65,3.33 z"
           id="path39"
           style="fill:currentColor;fill-opacity:1" />
      </g>
      <g
         aria-label="forked from"
         id="text855"
         style="font-style:normal;font-variant:normal;font-weight:normal;font-stretch:normal;font-size:40px;line-height:1.25;font-family:Cantarell;-inkscape-font-specification:'Cantarell, Normal';font-variant-ligatures:normal;font-variant-caps:normal;font-variant-numeric:normal;font-variant-east-asian:normal;fill:currentColor;fill-opacity:1;stroke:none"
         transform="matrix(0.37661397,0,0,0.37661397,72.463802,80.577987)">
        <path
           d="m 131.9554,143.34233 h 3.2 v -16.6 h 6 v -2.68 h -6 v -4.2 c 0,-2.48 1.16,-3.76 3.36,-3.76 1.04,0 2.4,0.2 3.4,0.68 l 0.68,-2.4 c -1.24,-0.6 -2.48,-1 -3.84,-1 -4.08,0 -6.8,2.76 -6.8,6.88 v 3.8 h -2.88 v 2.68 h 2.88 z"
           id="path857"
           style="fill:currentColor;fill-opacity:1" />
        <path
           d="m 152.67533,143.74233 c 5.68,0 9.52,-4.12 9.52,-10.28 0,-5.96 -3.56,-9.8 -9.04,-9.8 -5.68,0 -9.48,4.08 -9.48,10.24 0,5.96 3.52,9.84 9,9.84 z m 0.44,-2.8 c -3.72,0 -6.24,-3 -6.24,-7.44 0,-4.28 2.28,-7.04 5.84,-7.04 3.72,0 6.28,3.04 6.28,7.44 0,4.24 -2.32,7.04 -5.88,7.04 z"
           id="path859"
           style="fill:currentColor;fill-opacity:1" />
        <path
           d="m 167.59531,143.34233 h 3.2 v -13.76 c 1.24,-1.68 3.2,-2.68 5.36,-2.68 0.76,0 1.48,0.12 2.12,0.36 l 0.8,-2.96 c -0.84,-0.28 -1.68,-0.44 -2.56,-0.44 -2.32,0 -4.48,1.12 -5.92,3 l -0.36,-2.8 h -2.64 z"
           id="path861"
           style="fill:currentColor;fill-opacity:1" />
        <path
           d="m 194.87526,143.34233 h 4.24 l -9.24,-10.56 8.36,-8.72 h -3.8 l -8.56,8.92 v -19.2 h -3.2 v 29.56 h 3.2 v -10.2 z"
           id="path863"
           style="fill:currentColor;fill-opacity:1" />
        <path
           d="m 211.27523,143.74233 c 2.2,0 4.6,-0.52 6.32,-1.44 l -0.72,-2.32 c -1.48,0.72 -3.36,1.16 -5.04,1.16 -4.08,0 -6.64,-2.44 -7.12,-6.56 h 13.44 c 0.08,-0.6 0.16,-2 0.16,-2.76 0,-4.84 -3.2,-8.16 -7.96,-8.16 -5.36,0 -9,4.2 -9,10.12 0,6.16 3.8,9.96 9.92,9.96 z m -6.6,-11.56 c 0.28,-3.76 2.2,-5.8 5.44,-5.8 3.28,0 5.2,2.12 5.2,5.8 z"
           id="path865"
           style="fill:currentColor;fill-opacity:1" />
        <path
           d="m 231.07523,143.74233 c 2.32,0 4.28,-0.84 5.76,-2.28 l 0.8,1.88 h 2.24 v -29.56 h -3.2 v 11.6 c -1.36,-1.12 -3.12,-1.72 -5.16,-1.72 -5.44,0 -9.04,4.08 -9.04,10.2 0,5.92 3.44,9.88 8.6,9.88 z m 5.6,-5 c -1.08,1.4 -2.72,2.2 -4.68,2.2 -3.84,0 -6.32,-3 -6.32,-7.44 0,-4.24 2.24,-7.04 5.96,-7.04 2.16,0 3.88,0.88 5.04,2.4 z"
           id="path867"
           style="fill:currentColor;fill-opacity:1" />
        <path
           d="m 255.95519,143.34233 h 3.2 v -16.6 h 6 v -2.68 h -6 v -4.2 c 0,-2.48 1.16,-3.76 3.36,-3.76 1.04,0 2.4,0.2 3.4,0.68 l 0.68,-2.4 c -1.24,-0.6 -2.48,-1 -3.84,-1 -4.08,0 -6.8,2.76 -6.8,6.88 v 3.8 h -2.88 v 2.68 h 2.88 z"
           id="path869"
           style="fill:currentColor;fill-opacity:1" />
        <path
           d="m 268.91512,143.34233 h 3.2 v -13.76 c 1.24,-1.68 3.2,-2.68 5.36,-2.68 0.76,0 1.48,0.12 2.12,0.36 l 0.8,-2.96 c -0.84,-0.28 -1.68,-0.44 -2.56,-0.44 -2.32,0 -4.48,1.12 -5.92,3 l -0.36,-2.8 h -2.64 z"
           id="path871"
           style="fill:currentColor;fill-opacity:1" />
        <path
           d="m 291.75507,143.74233 c 5.68,0 9.52,-4.12 9.52,-10.28 0,-5.96 -3.56,-9.8 -9.04,-9.8 -5.68,0 -9.48,4.08 -9.48,10.24 0,5.96 3.52,9.84 9,9.84 z m 0.44,-2.8 c -3.72,0 -6.24,-3 -6.24,-7.44 0,-4.28 2.28,-7.04 5.84,-7.04 3.72,0 6.28,3.04 6.28,7.44 0,4.24 -2.32,7.04 -5.88,7.04 z"
           id="path873"
           style="fill:currentColor;fill-opacity:1" />
        <path
           d="m 332.59505,143.34233 h 3.2 v -12.64 c 0,-4.28 -2.8,-7.04 -7.08,-7.04 -2.56,0 -5.08,1.04 -7.04,2.88 -1.2,-1.84 -3.24,-2.88 -5.88,-2.88 -2.2,0 -4.36,0.76 -6.16,2.08 l -0.72,-1.68 h -2.24 v 19.28 h 3.2 v -15.08 c 1.44,-1.16 3.16,-1.8 5,-1.8 3.08,0 4.76,1.76 4.76,4.88 v 12 h 3.2 v -12.64 c 0,-0.8 -0.08,-1.52 -0.28,-2.2 1.48,-1.32 3.32,-2.04 5.28,-2.04 3.08,0 4.76,1.76 4.76,4.88 z"
           id="path875"
           style="fill:currentColor;fill-opacity:1" />
      </g>
    </g>
  </g>
</svg>
