<?xml version="1.0" encoding="UTF-8" standalone="no"?>
<svg
   xmlns:dc="http://purl.org/dc/elements/1.1/"
   xmlns:cc="http://creativecommons.org/ns#"
   xmlns:rdf="http://www.w3.org/1999/02/22-rdf-syntax-ns#"
   xmlns:svg="http://www.w3.org/2000/svg"
   xmlns="http://www.w3.org/2000/svg"
   xmlns:sodipodi="http://sodipodi.sourceforge.net/DTD/sodipodi-0.dtd"
   xmlns:inkscape="http://www.inkscape.org/namespaces/inkscape"
   version="1.1"
   id="logo"
   sodipodi:docname="wordmark.svg"
   width="340"
   height="64"
   inkscape:version="1.0.1 (3bc2e813f5, 2020-09-07)">
  <metadata
     id="metadata13">
    <rdf:RDF>
      <cc:Work
         rdf:about="">
        <dc:format>image/svg+xml</dc:format>
        <dc:type
           rdf:resource="http://purl.org/dc/dcmitype/StillImage" />
        <dc:title></dc:title>
      </cc:Work>
    </rdf:RDF>
  </metadata>
  <defs
     id="defs11" />
  <sodipodi:namedview
     pagecolor="#ffffff"
     bordercolor="#666666"
     borderopacity="1"
     objecttolerance="10"
     gridtolerance="10"
     guidetolerance="10"
     inkscape:pageopacity="0"
     inkscape:pageshadow="2"
     inkscape:window-width="1920"
     inkscape:window-height="1024"
     id="namedview9"
     showgrid="false"
     inkscape:zoom="2.5183333"
     inkscape:cx="149.43703"
     inkscape:cy="53.380533"
     inkscape:window-x="1920"
     inkscape:window-y="28"
     inkscape:window-maximized="1"
     inkscape:current-layer="logo"
     inkscape:document-rotation="0" />
  <g
     id="g902"
     transform="matrix(1.0000076,0,0,1.0000076,4.5626453,-79.661881)"
     style="fill:currentColor;fill-opacity:1">
    <g
       aria-label="CHEVRO Send"
       id="text17"
       style="fill:currentColor;fill-opacity:1">
      <path
         d="m 50.836221,118.56871 c 3,0 6.44,-0.8 8.56,-1.96 l -1.52,-5 c -1.6,0.56 -3.64,0.88 -5.36,0.88 -5.56,0 -8.76,-3.28 -8.76,-8.68 0,-5.080001 2.84,-7.680001 7.88,-7.680001 2.16,0 4.68,0.4 6.2,1.04 l 1.92,-5.44 c -2.68,-1.16 -5.28,-1.72 -8.04,-1.72 -8.92,0 -15.16,5.76 -15.16,14.480001 0,8.44 5.84,14.08 14.28,14.08 z"
         id="path43"
         style="fill:currentColor;fill-opacity:1" />
      <path
         d="m 63.356209,118.16871 h 7.04 v -10.96 h 10.76 v 10.96 h 7.04 V 90.408709 h -7.04 v 10.560001 h -10.76 V 90.408709 h -7.04 z"
         id="path45"
         style="fill:currentColor;fill-opacity:1" />
      <path
         d="m 93.876152,118.16871 h 19.919998 v -6.08 h -13 v -4.96 h 11.88 v -6.08 h -11.88 v -4.560001 h 13 v -6.08 H 93.876152 Z"
         id="path47"
         style="fill:currentColor;fill-opacity:1" />
      <path
         d="m 125.55613,118.16871 h 7.4 l 9.88,-27.760001 h -7.16 l -6.12,19.520001 -5.72,-19.520001 h -8.08 z"
         id="path49"
         style="fill:currentColor;fill-opacity:1" />
      <path
         d="m 145.6361,118.16871 h 6.92 v -9.48 h 3.08 l 5.4,9.48 h 8.32 l -6.92,-10.92 c 3.12,-1.68 5,-4.68 5,-8.440001 0,-5.36 -3.84,-8.4 -10.36,-8.4 h -11.44 z m 6.92,-15.36 v -6.360001 h 3.56 c 2.6,0 4.12,1.24 4.12,3.32 0,1.880001 -1.12,3.040001 -3.16,3.040001 z"
         id="path51"
         style="fill:currentColor;fill-opacity:1" />
      <path
         d="m 184.99608,118.56871 c 8.68,0 14.44,-5.76 14.44,-14.44 0,-8.480001 -5.6,-14.120001 -14,-14.120001 -8.6,0 -14.32,5.8 -14.32,14.520001 0,8.44 5.56,14.04 13.88,14.04 z m 0.44,-6.08 c -4.28,0 -7.04,-3.28 -7.04,-8.36 0,-4.880001 2.6,-8.040001 6.6,-8.040001 4.36,0 7.16,3.32 7.16,8.440001 0,4.84 -2.64,7.96 -6.72,7.96 z"
         id="path53"
         style="fill:currentColor;fill-opacity:1" />
      <path
         d="m 219.43602,118.56871 c 6.2,0 10.24,-3.16 10.24,-8.04 0,-9.84 -15.56,-5.92 -15.56,-13.080001 0,-2.92 2.36,-4.52 6.6,-4.52 2.36,0 4.92,0.48 6.92,1.32 l 1,-2.6 c -2.36,-1.04 -5.04,-1.6 -7.68,-1.6 -6.2,0 -10.24,3.08 -10.24,7.92 0,9.520001 15.52,5.960001 15.52,13.040001 0,2.8 -2.4,4.6 -6.6,4.6 -2.52,0 -5.64,-0.68 -8.36,-1.8 l -1,2.6 c 3.08,1.4 6.2,2.16 9.16,2.16 z"
         id="path55"
         style="fill:currentColor;fill-opacity:1" />
      <path
         d="m 243.036,118.56871 c 2.2,0 4.6,-0.52 6.32,-1.44 l -0.72,-2.32 c -1.48,0.72 -3.36,1.16 -5.04,1.16 -4.08,0 -6.64,-2.44 -7.12,-6.56 h 13.44 c 0.08,-0.6 0.16,-2 0.16,-2.76 0,-4.84 -3.2,-8.160001 -7.96,-8.160001 -5.36,0 -9,4.200001 -9,10.120001 0,6.16 3.8,9.96 9.92,9.96 z m -6.6,-11.56 c 0.28,-3.76 2.2,-5.8 5.44,-5.8 3.28,0 5.2,2.12 5.2,5.8 z"
         id="path57"
         style="fill:currentColor;fill-opacity:1" />
      <path
         d="m 268.63599,118.16871 h 3.2 v -12.64 c 0,-4.28 -2.84,-7.040001 -7.16,-7.040001 -2.2,0 -4.4,0.76 -6.24,2.120001 l -0.72,-1.720001 h -2.24 v 19.280001 h 3.2 v -15.08 c 1.48,-1.16 3.24,-1.8 5.12,-1.8 3.12,0 4.84,1.76 4.84,4.88 z"
         id="path59"
         style="fill:currentColor;fill-opacity:1" />
      <path
         d="m 285.51597,118.56871 c 2.32,0 4.28,-0.84 5.76,-2.28 l 0.8,1.88 h 2.24 V 88.608709 h -3.2 v 11.600001 c -1.36,-1.120001 -3.12,-1.720001 -5.16,-1.720001 -5.44,0 -9.04,4.080001 -9.04,10.200001 0,5.92 3.44,9.88 8.6,9.88 z m 5.6,-5 c -1.08,1.4 -2.72,2.2 -4.68,2.2 -3.84,0 -6.32,-3 -6.32,-7.44 0,-4.24 2.24,-7.04 5.96,-7.04 2.16,0 3.88,0.88 5.04,2.4 z"
         id="path61"
         style="fill:currentColor;fill-opacity:1" />
    </g>
    <g
       id="use5"
       transform="matrix(0.34775652,0,0,0.34775652,176.37435,117.86131)"
       style="fill:currentColor;fill-opacity:1">
      <path
         d="m 84,48 h 5.83 V 35.87 H 103.3 V 30.45 H 89.83 V 23.51 H 103.3 V 18 H 84 Z m 23.57,0 h 5.79 V 25.81 h -5.79 z m 2.88,-32.12 a 3.46,3.46 0 0 0 -2.59,1 3.62,3.62 0 0 0 -1,2.65 3.57,3.57 0 0 0 1,2.59 3.52,3.52 0 0 0 2.61,1 3.46,3.46 0 0 0 3.65,-3.26 c 0,-0.12 0,-0.23 0,-0.35 a 3.71,3.71 0 0 0 -1,-2.65 3.5,3.5 0 0 0 -2.67,-1 z m 19.14,9.53 a 7.22,7.22 0 0 0 -3.72,0.93 5.82,5.82 0 0 0 -2.4,2.89 v -3.42 h -5.59 V 48 h 5.63 V 36.29 a 5.27,5.27 0 0 1 1.31,-4 4.94,4.94 0 0 1 3.49,-1.21 6.33,6.33 0 0 1 1.73,0.23 4,4 0 0 1 1.23,0.55 l 2,-5.59 a 7.51,7.51 0 0 0 -1.66,-0.61 8.11,8.11 0 0 0 -2,-0.26 z m 23.94,3.19 a 11.15,11.15 0 0 0 -3.61,-2.37 12.08,12.08 0 0 0 -4.6,-0.86 11.62,11.62 0 0 0 -8.3,3.37 11.17,11.17 0 0 0 -2.44,3.67 11.59,11.59 0 0 0 -0.89,4.54 12.24,12.24 0 0 0 0.83,4.52 10.52,10.52 0 0 0 2.36,3.66 10.93,10.93 0 0 0 3.71,2.44 12.75,12.75 0 0 0 4.85,0.88 12.15,12.15 0 0 0 6.12,-1.39 13.25,13.25 0 0 0 4.11,-3.74 L 151,40.6 a 6.23,6.23 0 0 1 -2.18,2.15 6.36,6.36 0 0 1 -3.33,0.8 6.7,6.7 0 0 1 -4.13,-1.25 6,6 0 0 1 -2.23,-3.43 h 17.62 v -2.13 a 11.71,11.71 0 0 0 -0.87,-4.56 10.5,10.5 0 0 0 -2.35,-3.59 z m -14.21,5.85 a 6.38,6.38 0 0 1 2.26,-3.12 6.11,6.11 0 0 1 3.74,-1.15 6.26,6.26 0 0 1 3.73,1.08 5.56,5.56 0 0 1 2.1,3.19 z M 167,16.08 a 6.05,6.05 0 0 0 -2.91,1.54 6.15,6.15 0 0 0 -1.56,2.89 18.1,18.1 0 0 0 -0.48,4.52 v 0.78 h -3.65 v 5.1 h 3.65 V 48 h 5.63 V 30.91 H 173 v -5.1 h -5.3 v -1.06 a 13.34,13.34 0 0 1 0.12,-2 2,2 0 0 1 0.6,-1.19 2.45,2.45 0 0 1 1.33,-0.57 15.25,15.25 0 0 1 2.34,-0.15 H 173 v -5.21 h -1.48 A 19.06,19.06 0 0 0 167,16.08 Z m 27.4,12.65 a 12,12 0 0 0 -16.72,0 10.87,10.87 0 0 0 -2.46,3.67 11.61,11.61 0 0 0 -0.89,4.5 11.46,11.46 0 0 0 7.07,10.64 11.73,11.73 0 0 0 4.64,0.9 12,12 0 0 0 4.66,-0.9 11.26,11.26 0 0 0 3.72,-2.49 11.83,11.83 0 0 0 2.46,-3.67 11.31,11.31 0 0 0 0.9,-4.48 11.43,11.43 0 0 0 -3.38,-8.17 z m -2.7,10.57 a 5.88,5.88 0 0 1 -1.29,2 6.53,6.53 0 0 1 -1.93,1.31 6,6 0 0 1 -4.76,0 6.34,6.34 0 0 1 -1.93,-1.31 6.06,6.06 0 0 1 -1.3,-2 6.48,6.48 0 0 1 0,-4.86 5.76,5.76 0 0 1 1.3,-2 6.08,6.08 0 0 1 1.93,-1.32 6,6 0 0 1 4.76,0 6.37,6.37 0 0 1 1.93,1.32 5.73,5.73 0 0 1 1.29,2 6.39,6.39 0 0 1 0,4.86 z m 29.47,-13.49 h -6.65 l -4.68,6.57 -4.64,-6.57 h -6.74 L 206.3,36.61 198,48 h 6.82 l 5,-6.94 5.07,6.94 h 6.86 l -8.46,-11.34 z m 34,7.46 a 12.88,12.88 0 0 0 -3.37,-1.44 c -1.25,-0.34 -2.46,-0.63 -3.63,-0.88 l -3.08,-0.7 a 10.64,10.64 0 0 1 -2.51,-0.86 4.54,4.54 0 0 1 -1.71,-1.39 3.61,3.61 0 0 1 -0.62,-2.19 4.8,4.8 0 0 1 1.58,-3.7 c 1.06,-1 2.73,-1.44 5,-1.44 a 9.84,9.84 0 0 1 5.07,1.17 10.47,10.47 0 0 1 3.39,3.23 l 2.79,-2.18 a 15.22,15.22 0 0 0 -4.63,-3.89 13.8,13.8 0 0 0 -6.59,-1.44 12.13,12.13 0 0 0 -4.14,0.66 10.33,10.33 0 0 0 -3.19,1.78 7.53,7.53 0 0 0 -2.05,2.63 7.41,7.41 0 0 0 -0.72,3.24 6.7,6.7 0 0 0 0.84,3.53 7.06,7.06 0 0 0 2.2,2.22 11.11,11.11 0 0 0 3.06,1.38 c 1.13,0.32 2.29,0.6 3.47,0.84 l 3.26,0.74 a 12.63,12.63 0 0 1 2.8,1 5.86,5.86 0 0 1 2,1.56 3.88,3.88 0 0 1 0.74,2.42 5.2,5.2 0 0 1 -1.81,4.09 7.83,7.83 0 0 1 -5.32,1.55 11,11 0 0 1 -9.89,-5.38 l -3,2.34 a 15.86,15.86 0 0 0 5.23,4.54 16.06,16.06 0 0 0 7.7,1.7 12.58,12.58 0 0 0 4.38,-0.72 10.14,10.14 0 0 0 3.3,-2 8.79,8.79 0 0 0 2.1,-2.85 8.09,8.09 0 0 0 0.74,-3.39 6.94,6.94 0 0 0 -1,-3.8 7.71,7.71 0 0 0 -2.42,-2.37 z m 27.51,-4.72 a 10.53,10.53 0 0 0 -3.58,-2.34 11.89,11.89 0 0 0 -4.49,-0.84 11.6,11.6 0 0 0 -4.62,0.9 11.35,11.35 0 0 0 -3.66,2.46 11.84,11.84 0 0 0 -3.33,8.27 12.21,12.21 0 0 0 0.82,4.51 10.53,10.53 0 0 0 2.36,3.64 11.24,11.24 0 0 0 3.7,2.42 12.41,12.41 0 0 0 4.82,0.88 11.68,11.68 0 0 0 6.12,-1.45 12.84,12.84 0 0 0 4.18,-4.18 l -2.88,-1.69 a 7.85,7.85 0 0 1 -7.43,4.27 9,9 0 0 1 -3.22,-0.53 8.21,8.21 0 0 1 -2.55,-1.5 8,8 0 0 1 -1.78,-2.28 7.79,7.79 0 0 1 -0.87,-2.91 h 19.59 V 36.66 A 11.75,11.75 0 0 0 285,32.12 10.92,10.92 0 0 0 282.65,28.55 Z m -16.28,6.67 a 8.88,8.88 0 0 1 1,-2.73 8.55,8.55 0 0 1 1.79,-2.18 8,8 0 0 1 2.44,-1.43 8.31,8.31 0 0 1 3,-0.52 7.45,7.45 0 0 1 7.84,6.86 z M 308.82,28 a 8.11,8.11 0 0 0 -3,-2 10.89,10.89 0 0 0 -3.92,-0.67 9.06,9.06 0 0 0 -4.58,1.14 8.76,8.76 0 0 0 -3.14,3 v -3.65 h -3.29 V 48 h 3.37 V 35.67 a 7.92,7.92 0 0 1 0.53,-2.93 7,7 0 0 1 1.48,-2.3 6.46,6.46 0 0 1 2.22,-1.5 7,7 0 0 1 2.75,-0.54 6.33,6.33 0 0 1 5,1.93 7.46,7.46 0 0 1 1.76,5.18 V 48 h 3.41 V 35.34 A 12.46,12.46 0 0 0 310.75,31.15 8.68,8.68 0 0 0 308.82,28 Z m 27,-12.42 v 14.1 a 8.14,8.14 0 0 0 -1.58,-1.83 10.08,10.08 0 0 0 -2,-1.36 10.39,10.39 0 0 0 -2.3,-0.84 10.22,10.22 0 0 0 -2.4,-0.28 11.63,11.63 0 0 0 -4.4,0.84 11.09,11.09 0 0 0 -3.59,2.38 11.3,11.3 0 0 0 -2.42,3.65 12.81,12.81 0 0 0 0,9.32 11.56,11.56 0 0 0 2.4,3.66 10.58,10.58 0 0 0 3.59,2.38 11.77,11.77 0 0 0 4.42,0.84 9.69,9.69 0 0 0 2.4,-0.31 11,11 0 0 0 2.3,-0.86 9.72,9.72 0 0 0 2,-1.37 8.75,8.75 0 0 0 1.58,-1.85 v 4 h 3.33 V 15.59 Z m -0.37,24.58 a 8.3,8.3 0 0 1 -10.85,4.47 v 0 a 7.68,7.68 0 0 1 -2.6,-1.76 7.88,7.88 0 0 1 -1.73,-2.67 8.93,8.93 0 0 1 -0.62,-3.35 8.67,8.67 0 0 1 0.62,-3.3 8,8 0 0 1 1.73,-2.66 8.17,8.17 0 0 1 2.6,-1.79 8.27,8.27 0 0 1 6.51,0 8.64,8.64 0 0 1 2.63,1.81 7.85,7.85 0 0 1 1.72,2.67 8.67,8.67 0 0 1 0.62,3.26 8.86,8.86 0 0 1 -0.65,3.33 z"
         id="path39"
         style="fill:currentColor;fill-opacity:1" />
    </g>
    <g
       aria-label="forked from"
       id="text855"
       style="font-style:normal;font-variant:normal;font-weight:normal;font-stretch:normal;font-size:40px;line-height:1.25;font-family:Cantarell;-inkscape-font-specification:'Cantarell, Normal';font-variant-ligatures:normal;font-variant-caps:normal;font-variant-numeric:normal;font-variant-east-asian:normal;fill:currentColor;fill-opacity:1;stroke:none"
       transform="matrix(0.37661397,0,0,0.37661397,72.463802,80.577987)">
      <path
         d="m 131.9554,143.34233 h 3.2 v -16.6 h 6 v -2.68 h -6 v -4.2 c 0,-2.48 1.16,-3.76 3.36,-3.76 1.04,0 2.4,0.2 3.4,0.68 l 0.68,-2.4 c -1.24,-0.6 -2.48,-1 -3.84,-1 -4.08,0 -6.8,2.76 -6.8,6.88 v 3.8 h -2.88 v 2.68 h 2.88 z"
         id="path857"
         style="fill:currentColor;fill-opacity:1" />
      <path
         d="m 152.67533,143.74233 c 5.68,0 9.52,-4.12 9.52,-10.28 0,-5.96 -3.56,-9.8 -9.04,-9.8 -5.68,0 -9.48,4.08 -9.48,10.24 0,5.96 3.52,9.84 9,9.84 z m 0.44,-2.8 c -3.72,0 -6.24,-3 -6.24,-7.44 0,-4.28 2.28,-7.04 5.84,-7.04 3.72,0 6.28,3.04 6.28,7.44 0,4.24 -2.32,7.04 -5.88,7.04 z"
         id="path859"
         style="fill:currentColor;fill-opacity:1" />
      <path
         d="m 167.59531,143.34233 h 3.2 v -13.76 c 1.24,-1.68 3.2,-2.68 5.36,-2.68 0.76,0 1.48,0.12 2.12,0.36 l 0.8,-2.96 c -0.84,-0.28 -1.68,-0.44 -2.56,-0.44 -2.32,0 -4.48,1.12 -5.92,3 l -0.36,-2.8 h -2.64 z"
         id="path861"
         style="fill:currentColor;fill-opacity:1" />
      <path
         d="m 194.87526,143.34233 h 4.24 l -9.24,-10.56 8.36,-8.72 h -3.8 l -8.56,8.92 v -19.2 h -3.2 v 29.56 h 3.2 v -10.2 z"
         id="path863"
         style="fill:currentColor;fill-opacity:1" />
      <path
         d="m 211.27523,143.74233 c 2.2,0 4.6,-0.52 6.32,-1.44 l -0.72,-2.32 c -1.48,0.72 -3.36,1.16 -5.04,1.16 -4.08,0 -6.64,-2.44 -7.12,-6.56 h 13.44 c 0.08,-0.6 0.16,-2 0.16,-2.76 0,-4.84 -3.2,-8.16 -7.96,-8.16 -5.36,0 -9,4.2 -9,10.12 0,6.16 3.8,9.96 9.92,9.96 z m -6.6,-11.56 c 0.28,-3.76 2.2,-5.8 5.44,-5.8 3.28,0 5.2,2.12 5.2,5.8 z"
         id="path865"
         style="fill:currentColor;fill-opacity:1" />
      <path
         d="m 231.07523,143.74233 c 2.32,0 4.28,-0.84 5.76,-2.28 l 0.8,1.88 h 2.24 v -29.56 h -3.2 v 11.6 c -1.36,-1.12 -3.12,-1.72 -5.16,-1.72 -5.44,0 -9.04,4.08 -9.04,10.2 0,5.92 3.44,9.88 8.6,9.88 z m 5.6,-5 c -1.08,1.4 -2.72,2.2 -4.68,2.2 -3.84,0 -6.32,-3 -6.32,-7.44 0,-4.24 2.24,-7.04 5.96,-7.04 2.16,0 3.88,0.88 5.04,2.4 z"
         id="path867"
         style="fill:currentColor;fill-opacity:1" />
      <path
         d="m 255.95519,143.34233 h 3.2 v -16.6 h 6 v -2.68 h -6 v -4.2 c 0,-2.48 1.16,-3.76 3.36,-3.76 1.04,0 2.4,0.2 3.4,0.68 l 0.68,-2.4 c -1.24,-0.6 -2.48,-1 -3.84,-1 -4.08,0 -6.8,2.76 -6.8,6.88 v 3.8 h -2.88 v 2.68 h 2.88 z"
         id="path869"
         style="fill:currentColor;fill-opacity:1" />
      <path
         d="m 268.91512,143.34233 h 3.2 v -13.76 c 1.24,-1.68 3.2,-2.68 5.36,-2.68 0.76,0 1.48,0.12 2.12,0.36 l 0.8,-2.96 c -0.84,-0.28 -1.68,-0.44 -2.56,-0.44 -2.32,0 -4.48,1.12 -5.92,3 l -0.36,-2.8 h -2.64 z"
         id="path871"
         style="fill:currentColor;fill-opacity:1" />
      <path
         d="m 291.75507,143.74233 c 5.68,0 9.52,-4.12 9.52,-10.28 0,-5.96 -3.56,-9.8 -9.04,-9.8 -5.68,0 -9.48,4.08 -9.48,10.24 0,5.96 3.52,9.84 9,9.84 z m 0.44,-2.8 c -3.72,0 -6.24,-3 -6.24,-7.44 0,-4.28 2.28,-7.04 5.84,-7.04 3.72,0 6.28,3.04 6.28,7.44 0,4.24 -2.32,7.04 -5.88,7.04 z"
         id="path873"
         style="fill:currentColor;fill-opacity:1" />
      <path
         d="m 332.59505,143.34233 h 3.2 v -12.64 c 0,-4.28 -2.8,-7.04 -7.08,-7.04 -2.56,0 -5.08,1.04 -7.04,2.88 -1.2,-1.84 -3.24,-2.88 -5.88,-2.88 -2.2,0 -4.36,0.76 -6.16,2.08 l -0.72,-1.68 h -2.24 v 19.28 h 3.2 v -15.08 c 1.44,-1.16 3.16,-1.8 5,-1.8 3.08,0 4.76,1.76 4.76,4.88 v 12 h 3.2 v -12.64 c 0,-0.8 -0.08,-1.52 -0.28,-2.2 1.48,-1.32 3.32,-2.04 5.28,-2.04 3.08,0 4.76,1.76 4.76,4.88 z"
         id="path875"
         style="fill:currentColor;fill-opacity:1" />
    </g>
  </g>
</svg>
